# xmcd
#
# Track frame offsets:
# 150
# 17921
# 34520
# 45790
# 66561
# 76106
# 88103
# 102696
# 117186
# 131564
# 146406
# 163629
# 180678
# 195221
# 207790
# 218568
# 233250
# 250623
# 265371
# 278366
# 293391
# 305514
# 319390
#
# Disc length: 4425 seconds
#
#
# Revision: 0
# Processed by: cddbd v1.5.1PL0 Copyright (c) Steve Scherf et al.
# Submitted via: FreeRIP 2.92 
#
DISCID=31114717
DTITLE=CHICAGO OVERCOAT - Omonimo
DYEAR=1989
DGENRE=Blues
TTITLE0=JAMES HARMAN Extra Napkins - 01
TTITLE1=JAMES HARMAN Extra Napkins - 02
TTITLE2=JAMES HARMAN Extra Napkins - 03
TTITLE3=JAMES HARMAN Extra Napkins - 04
TTITLE4=JAMES HARMAN Extra Napkins - 05
TTITLE5=JAMES HARMAN Extra Napkins - 06
TTITLE6=JAMES HARMAN Extra Napkins - 07
TTITLE7=JAMES HARMAN Extra Napkins - 08
TTITLE8=JAMES HARMAN Extra Napkins - 09
TTITLE9=JAMES HARMAN Extra Napkins - 10
TTITLE10=JAMES HARMAN Extra Napkins - 11
TTITLE11=CHICAGO OVERCOAT Omonimo - 01
TTITLE12=CHICAGO OVERCOAT Omonimo - 02
TTITLE13=CHICAGO OVERCOAT Omonimo - 03
TTITLE14=CHICAGO OVERCOAT Omonimo - 04
TTITLE15=CHICAGO OVERCOAT Omonimo - 05
TTITLE16=CHICAGO OVERCOAT Omonimo - 06
TTITLE17=CHICAGO OVERCOAT Omonimo - 07
TTITLE18=CHICAGO OVERCOAT Omonimo - 08
TTITLE19=CHICAGO OVERCOAT Omonimo - 09
TTITLE20=CHICAGO OVERCOAT Omonimo - 10
TTITLE21=CHICAGO OVERCOAT Omonimo - 11
TTITLE22=CHICAGO OVERCOAT Omonimo -
EXTD=Album Cenci
EXTT0=
EXTT1=
EXTT2=
EXTT3=
EXTT4=
EXTT5=
EXTT6=
EXTT7=
EXTT8=
EXTT9=
EXTT10=
EXTT11=
EXTT12=
EXTT13=
EXTT14=
EXTT15=
EXTT16=
EXTT17=
EXTT18=
EXTT19=
EXTT20=
EXTT21=
EXTT22=
PLAYORDER=
